<svg width="945" height="318" viewBox="0 0 945 318" fill="none" xmlns="http://www.w3.org/2000/svg">
<path d="M0.953336 222.768V160.888H6.69934C24.3793 160.888 33.4403 158.899 34.9873 130.39L39.8493 44.2H252.893V221H160.073V106.08H113.663L111.674 143.65C107.475 221 70.7893 222.768 22.1693 222.768H0.953336ZM375.042 226.746C302.112 226.746 264.542 200.668 264.542 150.28C264.542 99.892 302.112 73.814 375.042 73.814C447.972 73.814 485.542 99.892 485.542 150.28C485.542 200.668 447.972 226.746 375.042 226.746ZM352.942 150.28C352.942 165.75 360.456 173.706 375.042 173.706C389.628 173.706 397.142 165.75 397.142 150.28C397.142 134.81 389.628 126.854 375.042 126.854C360.456 126.854 352.942 134.81 352.942 150.28ZM496.622 79.56H585.022V127.296L618.614 79.56H713.644L662.372 147.186L712.76 221H611.984L585.022 179.673V221H496.622V79.56ZM721.291 79.56H807.481V125.97L806.376 173.485L830.465 79.56H937.871V221H851.681V174.59L852.786 127.075L828.697 221H721.291V79.56Z" fill="white" fill-opacity="0.9"/>
<path opacity="0.3" d="M337.617 297.372C343.767 294.092 346.391 291.058 346.391 287.368C346.391 281.71 341.717 278.266 334.091 278.266C326.26 278.266 321.422 281.792 320.561 288.024H318.88C319.782 280.767 325.235 276.708 334.091 276.708C342.824 276.708 348.154 280.767 348.154 287.368C348.154 291.755 345.202 295.199 338.355 298.848L320.233 308.442H347.498V310H319.536V307.048L337.617 297.372ZM368.682 310.492C358.186 310.492 352.282 304.424 352.282 293.6C352.282 282.776 358.186 276.708 368.682 276.708C379.178 276.708 385.082 282.776 385.082 293.6C385.082 304.424 379.178 310.492 368.682 310.492ZM354.045 293.6C354.045 303.399 359.334 308.934 368.682 308.934C378.03 308.934 383.319 303.399 383.319 293.6C383.319 283.801 378.03 278.266 368.682 278.266C359.334 278.266 354.045 283.801 354.045 293.6ZM408.076 277.2V310H406.354V278.348L388.806 285.769V284.047L405.124 277.2H408.076ZM442.443 280.193L422.599 310H420.549L441.459 278.758H415.301V277.2H442.443V280.193ZM447.532 292.903H483.94V294.297H447.532V292.903ZM507.223 297.372C513.373 294.092 515.997 291.058 515.997 287.368C515.997 281.71 511.323 278.266 503.697 278.266C495.866 278.266 491.028 281.792 490.167 288.024H488.486C489.388 280.767 494.841 276.708 503.697 276.708C512.43 276.708 517.76 280.767 517.76 287.368C517.76 291.755 514.808 295.199 507.961 298.848L489.839 308.442H517.104V310H489.142V307.048L507.223 297.372ZM538.288 310.492C527.792 310.492 521.888 304.424 521.888 293.6C521.888 282.776 527.792 276.708 538.288 276.708C548.784 276.708 554.688 282.776 554.688 293.6C554.688 304.424 548.784 310.492 538.288 310.492ZM523.651 293.6C523.651 303.399 528.94 308.934 538.288 308.934C547.636 308.934 552.925 303.399 552.925 293.6C552.925 283.801 547.636 278.266 538.288 278.266C528.94 278.266 523.651 283.801 523.651 293.6ZM578.092 297.372C584.242 294.092 586.866 291.058 586.866 287.368C586.866 281.71 582.192 278.266 574.566 278.266C566.735 278.266 561.897 281.792 561.036 288.024H559.355C560.257 280.767 565.71 276.708 574.566 276.708C583.299 276.708 588.629 280.767 588.629 287.368C588.629 291.755 585.677 295.199 578.83 298.848L560.708 308.442H587.973V310H560.011V307.048L578.092 297.372ZM620.432 277.2V297.7H627.074V299.258H620.432V310H618.71V299.258H593.208V296.47L617.111 277.2H620.432ZM594.11 297.7H618.71V277.897L594.11 297.7Z" fill="white"/>
</svg>
