<svg width="938" height="183" viewBox="0 0 938 183" fill="none" xmlns="http://www.w3.org/2000/svg">
<path d="M0.953336 178.768V116.888H6.69934C24.3793 116.888 33.4403 114.899 34.9873 86.39L39.8493 0.199997H252.893V177H160.073V62.08H113.663L111.674 99.65C107.475 177 70.7893 178.768 22.1693 178.768H0.953336ZM375.042 182.746C302.112 182.746 264.542 156.668 264.542 106.28C264.542 55.892 302.112 29.814 375.042 29.814C447.972 29.814 485.542 55.892 485.542 106.28C485.542 156.668 447.972 182.746 375.042 182.746ZM352.942 106.28C352.942 121.75 360.456 129.706 375.042 129.706C389.628 129.706 397.142 121.75 397.142 106.28C397.142 90.81 389.628 82.854 375.042 82.854C360.456 82.854 352.942 90.81 352.942 106.28ZM496.622 35.56H585.022V83.296L618.614 35.56H713.644L662.372 103.186L712.76 177H611.984L585.022 135.673V177H496.622V35.56ZM721.291 35.56H807.481V81.97L806.376 129.485L830.465 35.56H937.871V177H851.681V130.59L852.786 83.075L828.697 177H721.291V35.56Z" fill="white" fill-opacity="0.9"/>
</svg>
